<svg width="340" height="247" xmlns="http://www.w3.org/2000/svg">
 <!-- Created with Method Draw - http://github.com/duopixel/Method-Draw/ -->

 <g>
  <title>background</title>
  <rect fill="none" id="canvas_background" height="249" width="342" y="-1" x="-1"/>
  <g display="none" overflow="visible" y="0" x="0" height="100%" width="100%" id="canvasGrid">
   <rect fill="url(#gridpattern)" stroke-width="0" y="0" x="0" height="100%" width="100%"/>
  </g>
 </g>
 <g>
  <title>Layer 1</title>
  <metadata transform="matrix(0.152587890625,0,0,0.152587890625,0,0) ">Created by potrace 1.16, written by Peter Selinger 2001-2019</metadata>
  <g stroke="null" id="svg_18">
   <g id="svg_4" fill="#000000" transform="matrix(0.09572835431979947,0,0,-0.10489640214613463,-1839.698734104306,-1151.1357569977902) ">
    <path stroke="null" id="svg_5" d="m22001.01072,-11417.73791c-88,-207 -161,-386 -164,-398l-5,-23l366,0c283,0 366,3 366,12c0,18 -323,788 -328,783c-2,-2 -4,-58 -3,-124l2,-121l-30,0l-31,0l0,119c0,66 -3,122 -7,124c-5,3 -79,-165 -166,-372zm240,-76c27,-19 37,-59 22,-88c-16,-30 -28,-37 -65,-37c-62,0 -89,75 -44,120c24,24 57,26 87,5z"/>
    <path stroke="null" id="svg_6" d="m20868.01072,-11170.73791c-37,-40 -189,-196 -336,-347l-268,-275l0,-648l0,-648l695,0l695,0l0,648l0,647l-348,348c-191,191 -352,347 -358,347c-6,0 -42,-33 -80,-72zm26,-508l0,-90l-90,0l-90,0l0,90l0,90l90,0l90,0l0,-90zm320,0l0,-90l-90,0l-90,0l0,90l0,90l90,0l90,0l0,-90zm-650,-550l0,-91l-87,3l-88,3l-3,88l-3,87l91,0l90,0l0,-90zm330,0l0,-90l-90,0l-90,0l0,90l0,90l90,0l90,0l0,-90zm320,0l0,-90l-90,0l-90,0l0,90l0,90l90,0l90,0l0,-90zm328,3l-3,-88l-87,-3l-88,-3l0,91l0,90l90,0l91,0l-3,-87zm-978,-323l0,-90l-90,0l-90,0l0,90l0,90l90,0l90,0l0,-90zm330,0l0,-90l-90,0l-90,0l0,90l0,90l90,0l90,0l0,-90zm320,0l0,-90l-90,0l-90,0l0,90l0,90l90,0l90,0l0,-90zm330,0l0,-90l-90,0l-90,0l0,90l0,90l90,0l90,0l0,-90zm-980,-330l0,-90l-90,0l-90,0l0,90l0,90l90,0l90,0l0,-90zm330,0l0,-90l-90,0l-90,0l0,90l0,90l90,0l90,0l0,-90zm320,0l0,-90l-90,0l-90,0l0,90l0,90l90,0l90,0l0,-90zm330,0l0,-90l-90,0l-90,0l0,90l0,90l90,0l90,0l0,-90z"/>
    <path stroke="null" id="svg_7" d="m19624.01072,-11436.73791l0,-99l-52,-5c-42,-4 -57,-11 -80,-37c-25,-27 -28,-39 -28,-96l0,-65l-40,0c-21,0 -51,-5 -65,-12c-56,-26 -55,-5 -55,-788l0,-720l165,0l165,0l0,175l0,176l118,-3l117,-3l3,-173l2,-172l165,0l165,0l-2,731l-3,731l-33,29c-25,23 -42,29 -77,29l-45,0l0,50c0,97 -44,150 -124,150l-35,0l-3,98l-3,97l-127,3l-128,3l0,-99zm175,-227c47,-46 19,-115 -47,-115c-42,0 -68,25 -68,67c0,67 68,96 115,48zm-207,-327c8,-8 12,-46 12,-105c0,-86 1,-93 20,-93c16,0 20,-7 20,-30l0,-30l-84,0c-71,0 -84,3 -88,18c-7,24 1,42 18,42c11,0 14,18 14,86c0,47 5,94 10,105c12,22 59,26 78,7zm390,0c8,-8 12,-46 12,-105c0,-86 1,-93 20,-93c16,0 20,-7 20,-30l0,-30l-84,0c-87,0 -98,5 -88,43c2,9 11,17 18,17c11,0 14,18 14,79c0,102 10,131 48,131c15,0 33,-5 40,-12zm-394,-434c12,-12 16,-37 16,-110c0,-87 1,-94 20,-94c16,0 20,-7 20,-30l0,-30l-88,0c-96,0 -89,-4 -83,53c1,4 8,7 16,7c12,0 15,17 15,90c0,77 3,93 20,110c24,24 43,25 64,4zm390,0c12,-12 16,-37 16,-110c0,-87 1,-94 20,-94c16,0 20,-7 20,-30l0,-30l-85,0l-85,0l0,30c0,20 5,30 15,30c12,0 15,17 15,90c0,77 3,93 20,110c24,24 43,25 64,4z"/>
    <path stroke="null" id="svg_8" d="m21714.01072,-12383.73791l0,-485l105,0l105,0l0,130c0,117 2,132 20,150c22,22 42,25 71,10c17,-10 19,-23 19,-150l0,-140l165,0l165,0l0,133c0,117 2,136 18,150c23,21 41,21 70,1c21,-14 22,-22 22,-150l0,-134l105,0l105,0l0,485l0,485l-485,0l-485,0l0,-485zm308,332c7,-8 13,-69 14,-148l3,-134l28,-3c23,-3 27,-8 27,-33l0,-29l-110,0l-110,0l0,30c0,25 4,30 25,30l25,0l0,124c0,153 7,176 54,176c18,0 38,-6 44,-13zm442,-6c5,-11 10,-78 10,-150l0,-131l25,0c21,0 25,-5 25,-30l0,-30l-105,0l-105,0l0,29c0,23 5,30 23,33c21,3 22,7 25,137c1,79 7,140 14,148c17,21 75,16 88,-6z"/>
    <path stroke="null" id="svg_9" d="m21714.01072,-12973.73791l0,-45l60,0l60,0l0,-30l0,-30l-60,0l-60,0l0,-90l0,-90l485,0l485,0l0,90l0,90l-55,0c-54,0 -55,0 -55,30c0,30 1,30 55,30l55,0l0,45l0,45l-485,0l-485,0l0,-45z"/>
    <path stroke="null" id="svg_10" d="m19701.01072,-12974.73791c-4,-4 -7,-70 -7,-146l0,-138l60,0l61,0l-3,143l-3,142l-50,3c-28,2 -54,0 -58,-4z"/>
    <path stroke="null" id="svg_11" d="m20264.01072,-13203.73791l0,-55l695,0l695,0l0,55l0,55l-695,0l-695,0l0,-55z"/>
    <path stroke="null" id="svg_12" d="m18843.01072,-13506.73791c-28,-29 -39,-59 -39,-106c0,-41 5,-52 50,-102c53,-58 58,-83 22,-111c-32,-26 -57,-9 -68,45c-8,39 -27,41 -42,7c-29,-63 0,-105 70,-105c52,0 85,17 103,55c30,65 18,117 -41,170c-39,35 -51,72 -32,98c17,23 46,13 54,-19c7,-28 22,-31 40,-6c34,44 0,92 -64,91c-21,0 -44,-7 -53,-17z"/>
    <path stroke="null" id="svg_13" d="m19470.01072,-13505.73791c-3,-10 -10,-45 -16,-79c-11,-57 -14,-61 -37,-56c-32,6 -89,-48 -105,-100c-6,-21 -19,-45 -30,-54c-22,-20 -22,-15 -3,56c20,74 19,100 -2,100c-31,-1 -50,-24 -62,-78c-13,-51 -44,-103 -55,-91c-3,3 3,41 14,84c11,43 20,80 20,82c0,8 -47,1 -61,-10c-9,-7 -23,-39 -30,-72c-14,-64 -51,-116 -57,-81c-2,10 -1,38 3,62c5,35 10,44 26,44c14,0 19,7 19,29c0,16 -4,31 -10,33c-5,2 -6,18 -1,41c9,36 8,37 -18,37c-38,0 -48,-10 -56,-57c-4,-24 -12,-41 -18,-40c-15,3 -21,-177 -7,-204c14,-25 58,-25 86,2l22,21l7,-21c8,-26 50,-28 83,-5c20,14 23,14 28,0c8,-21 43,-20 73,0c22,16 24,16 33,0c13,-22 57,-20 84,5l22,21l7,-21c8,-28 42,-27 72,1l23,22l16,-22c23,-33 86,-31 113,4l21,27l0,-27c0,-24 4,-27 27,-24c24,3 28,9 38,59c7,31 19,67 29,80l17,24l-8,-30c-4,-16 -8,-52 -8,-80c0,-48 1,-50 30,-53c20,-2 38,4 52,18c22,20 22,20 33,0c24,-45 120,1 120,58c0,28 -4,28 -32,0c-21,-21 -23,-22 -26,-4c-2,10 -1,38 3,62c5,35 10,44 26,44c14,0 19,7 19,29c0,16 -5,31 -11,33c-8,3 -8,14 -1,41c10,36 10,37 -16,37c-39,0 -49,-10 -57,-57c-4,-24 -12,-41 -18,-40c-8,1 -12,-19 -13,-62c-1,-51 -6,-67 -24,-85l-22,-21l8,40c4,22 8,63 9,90c0,44 -3,50 -22,53c-15,2 -31,-6 -47,-25l-24,-28l5,28c5,24 2,27 -20,27c-33,0 -42,-14 -58,-85c-14,-64 -47,-109 -73,-99c-24,9 -20,22 19,58c27,26 35,41 35,68c0,84 -79,78 -124,-9c-9,-18 -16,-40 -16,-51c0,-10 -7,-27 -15,-38c-14,-18 -14,-17 -15,12c0,17 9,80 20,140c27,149 27,154 -9,154c-20,0 -31,-6 -35,-17z"/>
    <path stroke="null" id="svg_14" d="m20232.01072,-13499.73791c-46,-26 -76,-132 -44,-158c20,-17 37,10 34,54c-2,39 12,56 43,48c23,-6 23,-1 -1,-48c-11,-22 -20,-46 -20,-55c0,-9 -13,-29 -30,-45c-36,-35 -41,-70 -8,-60c17,6 20,4 15,-10c-4,-9 -7,-20 -7,-25c0,-5 -7,-16 -16,-25c-20,-20 -44,-3 -44,31c0,30 -14,31 -34,2c-33,-47 -8,-88 53,-88c60,0 95,37 125,133c11,34 26,16 26,-32c0,-85 58,-127 118,-85c20,14 24,14 38,0c19,-20 78,-21 93,-2c6,8 25,16 41,18c22,3 31,0 36,-14c7,-24 58,-24 83,1c19,19 19,19 24,0c8,-28 53,-24 82,7l23,25l4,-23c6,-45 78,-35 108,15c23,37 25,87 8,152c-10,36 -16,45 -35,45c-17,0 -27,-12 -48,-59c-24,-53 -85,-129 -85,-105c0,5 7,36 15,69c19,80 19,95 -2,95c-32,-1 -52,-26 -64,-78c-11,-51 -41,-103 -54,-91c-3,4 3,41 13,82c11,42 17,78 14,81c-10,11 -43,6 -57,-7c-7,-7 -19,-39 -26,-71c-7,-31 -18,-64 -25,-74c-10,-14 -12,-2 -11,68l2,85l-37,3c-27,2 -44,-3 -63,-20c-33,-28 -55,-69 -55,-102c0,-31 -37,-61 -57,-44c-25,21 -15,68 22,101c19,17 35,36 35,43c0,20 -21,28 -31,13c-23,-36 -6,23 22,80c24,47 29,65 20,74c-21,21 -64,-14 -97,-79c-17,-34 -33,-71 -36,-82c-4,-12 -13,-22 -21,-22c-12,0 -13,8 -6,45c5,25 15,58 24,74c28,55 22,67 -37,69c-29,0 -61,-3 -70,-9z"/>
    <path stroke="null" id="svg_15" d="m21425.01072,-13495.73791c-45,-18 -101,-94 -101,-137c0,-57 41,-86 70,-51c11,13 11,20 0,40c-19,35 0,72 46,91c68,29 122,-5 107,-67c-5,-24 -29,-49 -45,-49c-14,0 -9,57 7,70c23,19 18,40 -9,40c-47,0 -69,-48 -91,-199c-13,-80 -75,-105 -75,-30c0,16 -4,29 -8,29c-17,0 -42,-37 -42,-63c0,-36 25,-57 70,-57c56,0 95,37 119,113c22,70 24,68 21,-21c-1,-37 3,-69 10,-77c18,-22 67,-18 91,6l21,21l14,-21c22,-31 83,-29 115,5l24,26l5,-24c11,-45 78,-35 109,16c24,38 27,85 9,151c-10,36 -17,45 -34,45c-17,0 -29,-14 -51,-62c-36,-75 -84,-131 -107,-122c-24,9 -20,22 19,58c27,26 35,41 35,68c0,84 -79,78 -124,-9c-9,-18 -16,-40 -16,-50c0,-23 -27,-63 -43,-63c-17,0 -15,122 1,128c20,6 42,58 42,98c0,28 -8,44 -34,70c-31,31 -39,34 -87,33c-30,0 -60,-3 -68,-6z"/>
    <path stroke="null" id="svg_16" d="m22688.01072,-13566.73791c-6,-4 -15,-26 -19,-49c-4,-24 -12,-41 -18,-40c-8,1 -12,-17 -13,-53c-1,-54 -16,-100 -33,-100c-5,0 -4,19 0,43c21,103 22,127 7,127c-8,0 -19,-5 -26,-12c-9,-9 -15,-9 -24,0c-19,19 -55,14 -81,-10c-27,-25 -57,-79 -57,-101c0,-8 -7,-21 -17,-28c-15,-13 -16,-11 -8,16c5,17 9,52 10,80c0,39 -4,50 -17,53c-25,5 -48,-48 -48,-111c0,-37 -5,-59 -16,-68c-12,-10 -17,-10 -23,0c-8,13 2,85 19,135c13,39 0,53 -37,40c-24,-8 -30,-19 -43,-76c-14,-63 -33,-99 -45,-87c-2,3 4,37 15,75c11,38 20,75 20,81c0,26 -26,12 -47,-25l-22,-37l-1,38c0,30 -4,37 -20,37c-30,0 -53,-44 -47,-89c4,-34 1,-42 -30,-70c-33,-30 -37,-31 -51,-17c-15,15 -13,19 21,47c31,25 37,37 37,68c0,43 -14,61 -48,61c-66,0 -120,-155 -76,-218c22,-32 83,-30 114,3c13,14 26,23 28,20c3,-3 15,11 27,30l21,36l-1,-53c0,-48 2,-53 23,-56c13,-2 35,4 49,13c24,16 27,16 35,1c12,-21 67,-21 98,1c14,10 35,16 47,15c14,-2 23,2 24,10c0,7 4,3 9,-10c5,-12 16,-25 25,-28c26,-10 67,6 73,29c6,22 6,21 12,-3c8,-33 45,-38 75,-10l23,22l11,-21c15,-27 58,-27 87,0l22,21l7,-21c8,-28 48,-28 76,0l21,21l14,-21c18,-25 75,-29 93,-7c6,8 25,16 41,18c24,4 30,1 30,-14c0,-15 6,-19 27,-16c25,3 29,9 38,54c5,28 18,62 27,75c17,24 17,24 7,-14c-6,-21 -9,-54 -7,-75c3,-33 6,-37 34,-40c42,-4 84,30 84,69c0,35 -6,36 -31,7c-22,-28 -23,-16 -4,57c25,97 -14,139 -69,74l-26,-30l6,30c5,25 3,31 -10,31c-38,0 -53,-19 -66,-82c-7,-35 -19,-72 -26,-82c-11,-17 -13,-6 -11,70l2,89l-37,3c-30,3 -42,-3 -72,-33c-24,-24 -38,-48 -42,-75c-6,-36 -28,-69 -39,-59c-2,3 2,36 10,74c19,89 19,95 -3,95c-29,0 -49,-29 -66,-95c-16,-62 -48,-102 -54,-69c-2,9 -1,36 3,60c5,35 10,44 26,44c14,0 19,7 19,29c0,16 -5,31 -11,33c-8,3 -8,14 -1,41c10,36 10,37 -16,37c-15,0 -32,-4 -38,-8z"/>
    <path stroke="null" id="svg_17" d="m21072.01072,-13665.73791c-15,-16 -32,-41 -37,-56c-16,-41 -13,-109 5,-135c35,-50 144,-10 144,53c0,31 -3,31 -35,-1c-25,-25 -28,-26 -43,-10c-16,16 -16,18 3,32c48,35 55,45 55,78c0,19 -3,41 -6,50c-10,26 -57,19 -86,-11z"/>
   </g>
  </g>
  <ellipse stroke="#000" ry="44.96125" rx="279.06987" id="svg_20" cy="454.65122" cx="407.36436" fill-opacity="null" stroke-opacity="null" stroke-width="1.5" fill="#fff"/>
 </g>
</svg>