<?xml version="1.0" standalone="no"?>
<!DOCTYPE svg PUBLIC "-//W3C//DTD SVG 20010904//EN"
 "http://www.w3.org/TR/2001/REC-SVG-20010904/DTD/svg10.dtd">
<svg version="1.0" xmlns="http://www.w3.org/2000/svg"
 width="512.000000pt" height="408.000000pt" viewBox="0 0 512.000000 408.000000"
 preserveAspectRatio="xMidYMid meet">
<metadata>
Created by potrace 1.16, written by Peter Selinger 2001-2019
</metadata>
<g transform="translate(0.000000,408.000000) scale(0.100000,-0.100000)"
fill="#000000" stroke="none">
<path d="M3567 3301 c-88 -207 -161 -386 -164 -398 l-5 -23 366 0 c283 0 366
3 366 12 0 18 -323 788 -328 783 -2 -2 -4 -58 -3 -124 l2 -121 -30 0 -31 0 0
119 c0 66 -3 122 -7 124 -5 3 -79 -165 -166 -372z m240 -76 c27 -19 37 -59 22
-88 -16 -30 -28 -37 -65 -37 -62 0 -89 75 -44 120 24 24 57 26 87 5z"/>
<path d="M2434 3548 c-37 -40 -189 -196 -336 -347 l-268 -275 0 -648 0 -648
695 0 695 0 0 648 0 647 -348 348 c-191 191 -352 347 -358 347 -6 0 -42 -33
-80 -72z m26 -508 l0 -90 -90 0 -90 0 0 90 0 90 90 0 90 0 0 -90z m320 0 l0
-90 -90 0 -90 0 0 90 0 90 90 0 90 0 0 -90z m-650 -550 l0 -91 -87 3 -88 3 -3
88 -3 87 91 0 90 0 0 -90z m330 0 l0 -90 -90 0 -90 0 0 90 0 90 90 0 90 0 0
-90z m320 0 l0 -90 -90 0 -90 0 0 90 0 90 90 0 90 0 0 -90z m328 3 l-3 -88
-87 -3 -88 -3 0 91 0 90 90 0 91 0 -3 -87z m-978 -323 l0 -90 -90 0 -90 0 0
90 0 90 90 0 90 0 0 -90z m330 0 l0 -90 -90 0 -90 0 0 90 0 90 90 0 90 0 0
-90z m320 0 l0 -90 -90 0 -90 0 0 90 0 90 90 0 90 0 0 -90z m330 0 l0 -90 -90
0 -90 0 0 90 0 90 90 0 90 0 0 -90z m-980 -330 l0 -90 -90 0 -90 0 0 90 0 90
90 0 90 0 0 -90z m330 0 l0 -90 -90 0 -90 0 0 90 0 90 90 0 90 0 0 -90z m320
0 l0 -90 -90 0 -90 0 0 90 0 90 90 0 90 0 0 -90z m330 0 l0 -90 -90 0 -90 0 0
90 0 90 90 0 90 0 0 -90z"/>
<path d="M1190 3282 l0 -99 -52 -5 c-42 -4 -57 -11 -80 -37 -25 -27 -28 -39
-28 -96 l0 -65 -40 0 c-21 0 -51 -5 -65 -12 -56 -26 -55 -5 -55 -788 l0 -720
165 0 165 0 0 175 0 176 118 -3 117 -3 3 -173 2 -172 165 0 165 0 -2 731 -3
731 -33 29 c-25 23 -42 29 -77 29 l-45 0 0 50 c0 97 -44 150 -124 150 l-35 0
-3 98 -3 97 -127 3 -128 3 0 -99z m175 -227 c47 -46 19 -115 -47 -115 -42 0
-68 25 -68 67 0 67 68 96 115 48z m-207 -327 c8 -8 12 -46 12 -105 0 -86 1
-93 20 -93 16 0 20 -7 20 -30 l0 -30 -84 0 c-71 0 -84 3 -88 18 -7 24 1 42 18
42 11 0 14 18 14 86 0 47 5 94 10 105 12 22 59 26 78 7z m390 0 c8 -8 12 -46
12 -105 0 -86 1 -93 20 -93 16 0 20 -7 20 -30 l0 -30 -84 0 c-87 0 -98 5 -88
43 2 9 11 17 18 17 11 0 14 18 14 79 0 102 10 131 48 131 15 0 33 -5 40 -12z
m-394 -434 c12 -12 16 -37 16 -110 0 -87 1 -94 20 -94 16 0 20 -7 20 -30 l0
-30 -88 0 c-96 0 -89 -4 -83 53 1 4 8 7 16 7 12 0 15 17 15 90 0 77 3 93 20
110 24 24 43 25 64 4z m390 0 c12 -12 16 -37 16 -110 0 -87 1 -94 20 -94 16 0
20 -7 20 -30 l0 -30 -85 0 -85 0 0 30 c0 20 5 30 15 30 12 0 15 17 15 90 0 77
3 93 20 110 24 24 43 25 64 4z"/>
<path d="M3280 2335 l0 -485 105 0 105 0 0 130 c0 117 2 132 20 150 22 22 42
25 71 10 17 -10 19 -23 19 -150 l0 -140 165 0 165 0 0 133 c0 117 2 136 18
150 23 21 41 21 70 1 21 -14 22 -22 22 -150 l0 -134 105 0 105 0 0 485 0 485
-485 0 -485 0 0 -485z m308 332 c7 -8 13 -69 14 -148 l3 -134 28 -3 c23 -3 27
-8 27 -33 l0 -29 -110 0 -110 0 0 30 c0 25 4 30 25 30 l25 0 0 124 c0 153 7
176 54 176 18 0 38 -6 44 -13z m442 -6 c5 -11 10 -78 10 -150 l0 -131 25 0
c21 0 25 -5 25 -30 l0 -30 -105 0 -105 0 0 29 c0 23 5 30 23 33 21 3 22 7 25
137 1 79 7 140 14 148 17 21 75 16 88 -6z"/>
<path d="M3280 1745 l0 -45 60 0 60 0 0 -30 0 -30 -60 0 -60 0 0 -90 0 -90
485 0 485 0 0 90 0 90 -55 0 c-54 0 -55 0 -55 30 0 30 1 30 55 30 l55 0 0 45
0 45 -485 0 -485 0 0 -45z"/>
<path d="M1267 1744 c-4 -4 -7 -70 -7 -146 l0 -138 60 0 61 0 -3 143 -3 142
-50 3 c-28 2 -54 0 -58 -4z"/>
<path d="M1830 1515 l0 -55 695 0 695 0 0 55 0 55 -695 0 -695 0 0 -55z"/>
<path d="M409 1212 c-28 -29 -39 -59 -39 -106 0 -41 5 -52 50 -102 53 -58 58
-83 22 -111 -32 -26 -57 -9 -68 45 -8 39 -27 41 -42 7 -29 -63 0 -105 70 -105
52 0 85 17 103 55 30 65 18 117 -41 170 -39 35 -51 72 -32 98 17 23 46 13 54
-19 7 -28 22 -31 40 -6 34 44 0 92 -64 91 -21 0 -44 -7 -53 -17z"/>
<path d="M1036 1213 c-3 -10 -10 -45 -16 -79 -11 -57 -14 -61 -37 -56 -32 6
-89 -48 -105 -100 -6 -21 -19 -45 -30 -54 -22 -20 -22 -15 -3 56 20 74 19 100
-2 100 -31 -1 -50 -24 -62 -78 -13 -51 -44 -103 -55 -91 -3 3 3 41 14 84 11
43 20 80 20 82 0 8 -47 1 -61 -10 -9 -7 -23 -39 -30 -72 -14 -64 -51 -116 -57
-81 -2 10 -1 38 3 62 5 35 10 44 26 44 14 0 19 7 19 29 0 16 -4 31 -10 33 -5
2 -6 18 -1 41 9 36 8 37 -18 37 -38 0 -48 -10 -56 -57 -4 -24 -12 -41 -18 -40
-15 3 -21 -177 -7 -204 14 -25 58 -25 86 2 l22 21 7 -21 c8 -26 50 -28 83 -5
20 14 23 14 28 0 8 -21 43 -20 73 0 22 16 24 16 33 0 13 -22 57 -20 84 5 l22
21 7 -21 c8 -28 42 -27 72 1 l23 22 16 -22 c23 -33 86 -31 113 4 l21 27 0 -27
c0 -24 4 -27 27 -24 24 3 28 9 38 59 7 31 19 67 29 80 l17 24 -8 -30 c-4 -16
-8 -52 -8 -80 0 -48 1 -50 30 -53 20 -2 38 4 52 18 22 20 22 20 33 0 24 -45
120 1 120 58 0 28 -4 28 -32 0 -21 -21 -23 -22 -26 -4 -2 10 -1 38 3 62 5 35
10 44 26 44 14 0 19 7 19 29 0 16 -5 31 -11 33 -8 3 -8 14 -1 41 10 36 10 37
-16 37 -39 0 -49 -10 -57 -57 -4 -24 -12 -41 -18 -40 -8 1 -12 -19 -13 -62 -1
-51 -6 -67 -24 -85 l-22 -21 8 40 c4 22 8 63 9 90 0 44 -3 50 -22 53 -15 2
-31 -6 -47 -25 l-24 -28 5 28 c5 24 2 27 -20 27 -33 0 -42 -14 -58 -85 -14
-64 -47 -109 -73 -99 -24 9 -20 22 19 58 27 26 35 41 35 68 0 84 -79 78 -124
-9 -9 -18 -16 -40 -16 -51 0 -10 -7 -27 -15 -38 -14 -18 -14 -17 -15 12 0 17
9 80 20 140 27 149 27 154 -9 154 -20 0 -31 -6 -35 -17z"/>
<path d="M1798 1219 c-46 -26 -76 -132 -44 -158 20 -17 37 10 34 54 -2 39 12
56 43 48 23 -6 23 -1 -1 -48 -11 -22 -20 -46 -20 -55 0 -9 -13 -29 -30 -45
-36 -35 -41 -70 -8 -60 17 6 20 4 15 -10 -4 -9 -7 -20 -7 -25 0 -5 -7 -16 -16
-25 -20 -20 -44 -3 -44 31 0 30 -14 31 -34 2 -33 -47 -8 -88 53 -88 60 0 95
37 125 133 11 34 26 16 26 -32 0 -85 58 -127 118 -85 20 14 24 14 38 0 19 -20
78 -21 93 -2 6 8 25 16 41 18 22 3 31 0 36 -14 7 -24 58 -24 83 1 19 19 19 19
24 0 8 -28 53 -24 82 7 l23 25 4 -23 c6 -45 78 -35 108 15 23 37 25 87 8 152
-10 36 -16 45 -35 45 -17 0 -27 -12 -48 -59 -24 -53 -85 -129 -85 -105 0 5 7
36 15 69 19 80 19 95 -2 95 -32 -1 -52 -26 -64 -78 -11 -51 -41 -103 -54 -91
-3 4 3 41 13 82 11 42 17 78 14 81 -10 11 -43 6 -57 -7 -7 -7 -19 -39 -26 -71
-7 -31 -18 -64 -25 -74 -10 -14 -12 -2 -11 68 l2 85 -37 3 c-27 2 -44 -3 -63
-20 -33 -28 -55 -69 -55 -102 0 -31 -37 -61 -57 -44 -25 21 -15 68 22 101 19
17 35 36 35 43 0 20 -21 28 -31 13 -23 -36 -6 23 22 80 24 47 29 65 20 74 -21
21 -64 -14 -97 -79 -17 -34 -33 -71 -36 -82 -4 -12 -13 -22 -21 -22 -12 0 -13
8 -6 45 5 25 15 58 24 74 28 55 22 67 -37 69 -29 0 -61 -3 -70 -9z"/>
<path d="M2991 1223 c-45 -18 -101 -94 -101 -137 0 -57 41 -86 70 -51 11 13
11 20 0 40 -19 35 0 72 46 91 68 29 122 -5 107 -67 -5 -24 -29 -49 -45 -49
-14 0 -9 57 7 70 23 19 18 40 -9 40 -47 0 -69 -48 -91 -199 -13 -80 -75 -105
-75 -30 0 16 -4 29 -8 29 -17 0 -42 -37 -42 -63 0 -36 25 -57 70 -57 56 0 95
37 119 113 22 70 24 68 21 -21 -1 -37 3 -69 10 -77 18 -22 67 -18 91 6 l21 21
14 -21 c22 -31 83 -29 115 5 l24 26 5 -24 c11 -45 78 -35 109 16 24 38 27 85
9 151 -10 36 -17 45 -34 45 -17 0 -29 -14 -51 -62 -36 -75 -84 -131 -107 -122
-24 9 -20 22 19 58 27 26 35 41 35 68 0 84 -79 78 -124 -9 -9 -18 -16 -40 -16
-50 0 -23 -27 -63 -43 -63 -17 0 -15 122 1 128 20 6 42 58 42 98 0 28 -8 44
-34 70 -31 31 -39 34 -87 33 -30 0 -60 -3 -68 -6z"/>
<path d="M4254 1152 c-6 -4 -15 -26 -19 -49 -4 -24 -12 -41 -18 -40 -8 1 -12
-17 -13 -53 -1 -54 -16 -100 -33 -100 -5 0 -4 19 0 43 21 103 22 127 7 127 -8
0 -19 -5 -26 -12 -9 -9 -15 -9 -24 0 -19 19 -55 14 -81 -10 -27 -25 -57 -79
-57 -101 0 -8 -7 -21 -17 -28 -15 -13 -16 -11 -8 16 5 17 9 52 10 80 0 39 -4
50 -17 53 -25 5 -48 -48 -48 -111 0 -37 -5 -59 -16 -68 -12 -10 -17 -10 -23 0
-8 13 2 85 19 135 13 39 0 53 -37 40 -24 -8 -30 -19 -43 -76 -14 -63 -33 -99
-45 -87 -2 3 4 37 15 75 11 38 20 75 20 81 0 26 -26 12 -47 -25 l-22 -37 -1
38 c0 30 -4 37 -20 37 -30 0 -53 -44 -47 -89 4 -34 1 -42 -30 -70 -33 -30 -37
-31 -51 -17 -15 15 -13 19 21 47 31 25 37 37 37 68 0 43 -14 61 -48 61 -66 0
-120 -155 -76 -218 22 -32 83 -30 114 3 13 14 26 23 28 20 3 -3 15 11 27 30
l21 36 -1 -53 c0 -48 2 -53 23 -56 13 -2 35 4 49 13 24 16 27 16 35 1 12 -21
67 -21 98 1 14 10 35 16 47 15 14 -2 23 2 24 10 0 7 4 3 9 -10 5 -12 16 -25
25 -28 26 -10 67 6 73 29 6 22 6 21 12 -3 8 -33 45 -38 75 -10 l23 22 11 -21
c15 -27 58 -27 87 0 l22 21 7 -21 c8 -28 48 -28 76 0 l21 21 14 -21 c18 -25
75 -29 93 -7 6 8 25 16 41 18 24 4 30 1 30 -14 0 -15 6 -19 27 -16 25 3 29 9
38 54 5 28 18 62 27 75 17 24 17 24 7 -14 -6 -21 -9 -54 -7 -75 3 -33 6 -37
34 -40 42 -4 84 30 84 69 0 35 -6 36 -31 7 -22 -28 -23 -16 -4 57 25 97 -14
139 -69 74 l-26 -30 6 30 c5 25 3 31 -10 31 -38 0 -53 -19 -66 -82 -7 -35 -19
-72 -26 -82 -11 -17 -13 -6 -11 70 l2 89 -37 3 c-30 3 -42 -3 -72 -33 -24 -24
-38 -48 -42 -75 -6 -36 -28 -69 -39 -59 -2 3 2 36 10 74 19 89 19 95 -3 95
-29 0 -49 -29 -66 -95 -16 -62 -48 -102 -54 -69 -2 9 -1 36 3 60 5 35 10 44
26 44 14 0 19 7 19 29 0 16 -5 31 -11 33 -8 3 -8 14 -1 41 10 36 10 37 -16 37
-15 0 -32 -4 -38 -8z"/>
<path d="M2638 1053 c-15 -16 -32 -41 -37 -56 -16 -41 -13 -109 5 -135 35 -50
144 -10 144 53 0 31 -3 31 -35 -1 -25 -25 -28 -26 -43 -10 -16 16 -16 18 3 32
48 35 55 45 55 78 0 19 -3 41 -6 50 -10 26 -57 19 -86 -11z"/>
</g>
</svg>
